<svg width="15" height="14" viewBox="0 0 15 14" fill="none" xmlns="http://www.w3.org/2000/svg">
<path fill-rule="evenodd" clip-rule="evenodd" d="M9.19906 5.51943C9.19906 7.55163 7.55163 9.19906 5.51943 9.19906C3.48723 9.19906 1.83981 7.55163 1.83981 5.51943C1.83981 3.48723 3.48723 1.83981 5.51943 1.83981C7.55163 1.83981 9.19906 3.48723 9.19906 5.51943ZM8.76079 9.98733C7.85065 10.6488 6.7306 11.0389 5.51943 11.0389C2.47113 11.0389 0 8.56773 0 5.51943C0 2.47113 2.47113 0 5.51943 0C8.56773 0 11.0389 2.47113 11.0389 5.51943C11.0389 6.46669 10.8002 7.35822 10.3798 8.13718L14.0944 11.8518L12.3598 13.5863L8.76079 9.98733Z" fill="#222222"/>
</svg>
